<svg width="512" height="512" viewBox="0 0 512 512" fill="none" xmlns="http://www.w3.org/2000/svg" role="img" aria-labelledby="title desc">
  <title id="title">Veridane Studio logo</title>
  <desc id="desc">A professional black and white monogram logo using the letters V and S.</desc>
  <rect width="512" height="512" rx="112" fill="#050505"/>
  <rect x="38" y="38" width="436" height="436" rx="86" stroke="white" stroke-opacity="0.22" stroke-width="4"/>
  <path d="M139 145L226.5 367H263.5L351 145H302L246 296L190 145H139Z" fill="white"/>
  <path d="M301.5 209.5C301.5 188.5 319.2 174 348.5 174C369.8 174 388.7 180.9 405.5 194.8L430 160.9C409.3 143.3 382.5 134.5 349.5 134.5C321.2 134.5 298.2 141.4 280.5 155.1C262.8 168.8 254 187.3 254 210.5C254 232 260.7 248.6 274.2 260.3C287.7 272 309.2 281.2 338.6 287.9C356.2 291.9 368.1 296.2 374.4 300.8C380.7 305.4 383.8 311.8 383.8 320C383.8 329.4 379.8 336.8 371.8 342.1C363.8 347.4 353 350 339.4 350C312 350 287.2 339.5 265 318.5L237 351.6C264.1 377.2 297.8 390 338 390C367.8 390 391.7 382.7 409.8 368.1C427.9 353.5 437 334.2 437 310.1C437 289.8 430.8 274.1 418.4 263C406 251.9 386.2 243.1 359 236.7C337.8 231.7 322.8 227 314 222.5C305.7 218 301.5 213.7 301.5 209.5Z" fill="white" fill-opacity="0.18"/>
</svg>
