<svg width="64" height="64" viewBox="0 0 64 64" fill="none" xmlns="http://www.w3.org/2000/svg">
  <rect x="2" y="2" width="60" height="60" rx="14" fill="#050505" stroke="#fff" stroke-width="4"/>
  <path d="M13 18L24.4 47H29.3L41 18H34.2L26.9 38.8L19.7 18H13Z" fill="#fff"/>
  <path d="M44.5 18.2C39.4 18.2 36.2 20.9 36.2 24.7C36.2 32.9 49.9 30 49.9 36.1C49.9 38.7 47.6 40.1 44.4 40.1C41.3 40.1 38.8 39.1 36.7 37.4L33.7 41.8C36.4 44.2 40.2 45.7 44.4 45.7C51.3 45.7 56 42.1 56 36C56 26.7 42.4 29.5 42.4 24.5C42.4 23.1 43.7 22.3 45.8 22.3C48.5 22.3 50.5 23.1 52.4 24.5L55.1 20C52.2 18.8 49 18.2 44.5 18.2Z" fill="#fff"/>
</svg>
